<svg width="73" height="73" viewBox="0 0 73 73" fill="none" xmlns="http://www.w3.org/2000/svg">
<g filter="url(#filter0_d_133_2)">
<path d="M4 9C4 4.02944 8.02944 0 13 0H60C64.9706 0 69 4.02944 69 9V56C69 60.9706 64.9706 65 60 65H13C8.02944 65 4 60.9706 4 56V9Z" fill="#202022"/>
<path d="M4.5 9C4.5 4.30558 8.30558 0.5 13 0.5H60C64.6944 0.5 68.5 4.30558 68.5 9V56C68.5 60.6944 64.6944 64.5 60 64.5H13C8.30558 64.5 4.5 60.6944 4.5 56V9Z" stroke="#3C8661"/>
</g>
<g filter="url(#filter1_d_133_2)">
<path d="M17.4169 15.0909H26.5192L36.1328 38.5455H36.5419L46.1555 15.0909H55.2578V50H48.0987V27.2784H47.809L38.7749 49.8295H33.8999L24.8658 27.1932H24.576V50H17.4169V15.0909Z" fill="#6BE6A8"/>
</g>
<defs>
<filter id="filter0_d_133_2" x="0" y="0" width="73" height="73" filterUnits="userSpaceOnUse" color-interpolation-filters="sRGB">
<feFlood flood-opacity="0" result="BackgroundImageFix"/>
<feColorMatrix in="SourceAlpha" type="matrix" values="0 0 0 0 0 0 0 0 0 0 0 0 0 0 0 0 0 0 127 0" result="hardAlpha"/>
<feOffset dy="4"/>
<feGaussianBlur stdDeviation="2"/>
<feComposite in2="hardAlpha" operator="out"/>
<feColorMatrix type="matrix" values="0 0 0 0 0 0 0 0 0 0 0 0 0 0 0 0 0 0 0.25 0"/>
<feBlend mode="normal" in2="BackgroundImageFix" result="effect1_dropShadow_133_2"/>
<feBlend mode="normal" in="SourceGraphic" in2="effect1_dropShadow_133_2" result="shape"/>
</filter>
<filter id="filter1_d_133_2" x="13.4169" y="15.0909" width="45.8409" height="42.9091" filterUnits="userSpaceOnUse" color-interpolation-filters="sRGB">
<feFlood flood-opacity="0" result="BackgroundImageFix"/>
<feColorMatrix in="SourceAlpha" type="matrix" values="0 0 0 0 0 0 0 0 0 0 0 0 0 0 0 0 0 0 127 0" result="hardAlpha"/>
<feOffset dy="4"/>
<feGaussianBlur stdDeviation="2"/>
<feComposite in2="hardAlpha" operator="out"/>
<feColorMatrix type="matrix" values="0 0 0 0 0 0 0 0 0 0 0 0 0 0 0 0 0 0 0.25 0"/>
<feBlend mode="normal" in2="BackgroundImageFix" result="effect1_dropShadow_133_2"/>
<feBlend mode="normal" in="SourceGraphic" in2="effect1_dropShadow_133_2" result="shape"/>
</filter>
</defs>
</svg>
